<svg xmlns="http://www.w3.org/2000/svg" xmlns:xlink="http://www.w3.org/1999/xlink"><defs><clipPath id="clip0_169_15"><rect width="40.111" height="40" fill="white" transform="translate(0.0847168)"/></clipPath></defs><symbol id="icon-burger" viewBox="0 0 33 20"><g fill="none"><rect width="33" height="3.83721" fill="currentColor"/><rect y="7.67383" width="33" height="3.83721" fill="currentColor"/><rect y="15.3496" width="33" height="3.83721" fill="currentColor"/></g></symbol><symbol id="icon-close" viewBox="0 0 23 23"><g fill="none"><rect x="2.68701" width="27.3715" height="3.8" transform="rotate(45 2.68701 0)" fill="currentColor"/><rect x="0.831299" y="19.5566" width="27.3715" height="3.8" transform="rotate(-45 0.831299 19.5566)" fill="currentColor"/></g></symbol><symbol id="icon-star" viewBox="0 0 22 20"><g fill="none"><path d="M9.79329 0.85958C10.0931 -0.0606967 11.3951 -0.0606959 11.6949 0.859581L13.446 6.23398C13.5801 6.64561 13.9639 6.92418 14.3968 6.92418H20.0576C21.0269 6.92418 21.4293 8.16521 20.6443 8.73398L16.0694 12.0486C15.7179 12.3033 15.5709 12.7555 15.7053 13.1682L17.4539 18.5349C17.7539 19.4557 16.7006 20.2227 15.9164 19.6544L11.3308 16.3321C10.9808 16.0784 10.5074 16.0784 10.1574 16.3321L5.57183 19.6544C4.78757 20.2227 3.73428 19.4557 4.0343 18.5348L5.78288 13.1682C5.91733 12.7555 5.77025 12.3033 5.41879 12.0486L0.843917 8.73398C0.0589103 8.16521 0.461241 6.92418 1.43064 6.92418H7.09139C7.52432 6.92418 7.90808 6.6456 8.04219 6.23398L9.79329 0.85958Z" fill="currentColor"/></g></symbol><symbol id="social-behance" viewBox="0 0 41 40"><g fill="none"><g clip-path="url(#clip0_169_15)"><path d="M34.3201 0H5.96036C2.72049 0 0.0847168 2.62848 0.0847168 5.85938V34.1406C0.0847168 37.3715 2.72049 40 5.96036 40H34.3201C37.56 40 40.1958 37.3715 40.1958 34.1406V5.85938C40.1958 2.62848 37.56 0 34.3201 0ZM37.8455 34.1406C37.8455 36.0791 36.264 37.6562 34.3201 37.6562H5.96036C4.0165 37.6562 2.43497 36.0791 2.43497 34.1406V5.85938C2.43497 3.9209 4.0165 2.34375 5.96036 2.34375H34.3201C36.264 2.34375 37.8455 3.9209 37.8455 5.85938V34.1406Z" fill="currentColor" stroke="currentColor" stroke-width="0.5"/><path d="M18.9651 16.4844C18.9651 13.8995 16.8566 11.7969 14.2646 11.7969H7.21387V28.2031H14.2646C16.8566 28.2031 18.9651 26.1005 18.9651 23.5156C18.9651 22.1167 18.3467 20.8597 17.3686 20C18.3467 19.1403 18.9651 17.8833 18.9651 16.4844ZM16.6149 23.5156C16.6149 24.808 15.5606 25.8594 14.2646 25.8594H9.56412V21.1719H14.2646C15.5606 21.1719 16.6149 22.2232 16.6149 23.5156ZM9.56412 18.8281V14.1406H14.2646C15.5606 14.1406 16.6149 15.192 16.6149 16.4844C16.6149 17.7768 15.5606 18.8281 14.2646 18.8281H9.56412Z" fill="currentColor" stroke="currentColor" stroke-width="0.5"/><path d="M27.1911 16.4844C23.9512 16.4844 21.3154 19.1129 21.3154 22.3438C21.3154 25.5746 23.9512 28.2031 27.1911 28.2031C29.2821 28.2031 31.2321 27.081 32.2799 25.2744L30.2455 24.1006C29.6163 25.1855 28.4458 25.8594 27.1911 25.8594C25.6588 25.8594 24.3521 24.8798 23.867 23.5156H33.0667V22.3438C33.0667 19.1129 30.4309 16.4844 27.1911 16.4844ZM23.867 21.1719C24.3521 19.8077 25.6588 18.8281 27.1911 18.8281C28.7233 18.8281 30.03 19.8077 30.5151 21.1719H23.867Z" fill="currentColor" stroke="currentColor" stroke-width="0.5"/><path d="M22.4905 11.7969H31.8915V14.1406H22.4905V11.7969Z" fill="currentColor" stroke="currentColor" stroke-width="0.5"/></g></g></symbol><symbol id="social-dribble" viewBox="0 0 40 41"><g fill="none"><path d="M30.6636 7.90189L30.9693 7.51765L30.5907 7.20501C27.6753 4.79787 23.9726 3.35998 19.9218 3.35998C18.5026 3.35998 17.1267 3.55879 15.8239 3.8845L15.0968 4.06629L15.5439 4.66785C16.9345 6.53872 18.9322 9.36428 21.3246 13.7896L21.5312 14.1718L21.9385 14.0205C26.4658 12.3395 29.1786 9.76804 30.6636 7.90189ZM13.3633 5.14412L13.1183 4.82133L12.7517 4.99422C8.2556 7.11505 4.84923 11.1659 3.50458 16.1128L3.3385 16.7238L3.97134 16.7437C6.44724 16.8217 12.3654 16.705 18.9231 14.9482L19.5416 14.7825L19.2309 14.2226C16.6875 9.63894 14.5485 6.7054 13.3633 5.14412ZM32.8171 9.4031L32.4294 8.94246L32.0478 9.40819C30.3918 11.4294 27.5165 14.0547 22.9642 15.8361L22.4579 16.0342L22.6976 16.5221C23.6791 18.5203 24.6313 20.6496 25.4989 22.949L25.6418 23.3279L26.0421 23.2668C29.3354 22.7639 32.3796 22.7639 34.679 22.944C35.2381 22.9904 35.5988 23.0425 36.0187 23.1031C36.1072 23.1159 36.1982 23.1291 36.2943 23.1426L36.8064 23.2149L36.8614 22.7007C36.9288 22.0701 36.9676 21.4368 36.9676 20.7822C36.9676 16.4287 35.3902 12.4602 32.8171 9.4031ZM20.6701 17.0304L20.485 16.6592L20.086 16.7726C12.3727 18.9639 5.57803 18.897 3.46198 18.8116L2.98015 18.7921L2.94327 19.2729L2.94069 19.3066C2.90413 19.7831 2.8666 20.2721 2.8666 20.7918C2.8666 26.0256 5.13097 30.6976 8.70191 33.8945L9.07471 34.2283L9.40819 33.8552C10.3033 32.8539 11.5039 31.5786 12.9635 30.2474L12.9655 30.2456C15.7118 27.7139 19.2452 25.0351 23.0942 23.8663L23.6111 23.7093L23.4147 23.2061C22.5532 20.9984 21.6256 18.9462 20.6701 17.0304ZM30.1596 24.9266L30.1542 24.9268C29.1431 24.9756 28.0668 25.0731 26.9723 25.2191L26.3775 25.2984L26.5628 25.8692C27.4866 28.713 28.2507 31.7255 28.7443 34.8593L28.8686 35.6482L29.5239 35.1919C32.71 32.9733 35.12 29.6763 36.2427 25.8059L36.408 25.2363L35.8186 25.1698C34.3586 25.0049 32.5073 24.8387 30.1596 24.9266ZM24.5036 26.1119L24.35 25.6585L23.8904 25.7922C20.509 26.7761 16.9721 29.3273 14.2917 31.7876C12.9965 32.9662 11.9505 34.085 11.111 35.0015L10.6983 35.452L11.2216 35.7674C13.7671 37.3018 16.723 38.2045 19.9124 38.2045C22.306 38.2045 24.5638 37.6988 26.6257 36.8078L26.9737 36.6573L26.9228 36.2816C26.4385 32.7078 25.5843 29.3017 24.5036 26.1119ZM0.867676 20.7822C0.867676 10.029 9.43492 1.2832 19.9218 1.2832C30.4087 1.2832 38.9759 10.029 38.9759 20.7822C38.9759 31.5354 30.4087 40.2812 19.9218 40.2812C9.43492 40.2812 0.867676 31.5354 0.867676 20.7822Z" fill="currentColor" stroke="currentColor"/></g></symbol><symbol id="social-instagram" viewBox="0 0 40 41"><g fill="none"><path d="M12.1663 1.29281H12.6663V1.2832H28.571C34.5356 1.2832 39.4181 6.26789 39.4181 12.3952V29.1692C39.4181 35.2968 34.5353 40.2812 28.5804 40.2812H12.1663C6.20035 40.2812 1.30981 35.3048 1.30981 29.1884V12.4048C1.30981 6.27805 6.20115 1.29281 12.1663 1.29281ZM3.31814 12.4135V12.4144V29.1981C3.31814 34.1842 7.2457 38.2148 12.1663 38.2148H28.5804C33.4836 38.2148 37.4097 34.1827 37.4097 29.1788V12.4048C37.4097 7.4006 33.4833 3.36885 28.571 3.36885H12.1663C7.25349 3.36885 3.32807 7.40093 3.31814 12.4135ZM31.4025 8.4829C31.4025 7.89297 31.8565 7.44489 32.4067 7.44489C32.9568 7.44489 33.4108 7.89297 33.4108 8.4829C33.4108 9.07283 32.9568 9.52092 32.4067 9.52092C31.8565 9.52092 31.4025 9.07283 31.4025 8.4829ZM10.3442 20.787C10.3442 15.1313 14.8689 10.5209 20.3733 10.5209C25.8778 10.5209 30.4025 15.1313 30.4025 20.787C30.4025 26.4428 25.8778 31.0532 20.3733 31.0532C14.8689 31.0532 10.3442 26.4428 10.3442 20.787ZM28.3942 20.787C28.3942 16.2534 24.834 12.597 20.3733 12.597C15.9127 12.597 12.3525 16.2534 12.3525 20.787C12.3525 25.3206 15.9127 28.9771 20.3733 28.9771C24.834 28.9771 28.3942 25.3206 28.3942 20.787Z" fill="currentColor" stroke="currentColor"/></g></symbol><symbol id="social-linkedin" viewBox="0 0 42 42"><g fill="none"><path d="M35.2829 0.859375H6.8838C3.63944 0.859375 1 3.49174 1 6.7274V35.0504C1 38.2861 3.63944 40.9185 6.8838 40.9185H35.2829C38.5273 40.9185 41.1667 38.2861 41.1667 35.0504V6.7274C41.1667 3.49174 38.5273 0.859375 35.2829 0.859375ZM38.8132 35.0504C38.8132 36.9918 37.2295 38.5712 35.2829 38.5712H6.8838C4.93724 38.5712 3.35352 36.9918 3.35352 35.0504V6.7274C3.35352 4.78606 4.93724 3.20659 6.8838 3.20659H35.2829C37.2295 3.20659 38.8132 4.78606 38.8132 6.7274V35.0504Z" fill="currentColor" stroke="black" stroke-width="0.5"/><path d="M32.1279 29.8955C30.6913 29.8955 29.2649 29.8955 27.8164 29.8955C27.8164 29.8262 27.8164 29.7616 27.8164 29.6969C27.8164 27.3624 27.8161 25.0279 27.8167 22.6937C27.8167 22.1968 27.7798 21.7061 27.655 21.2215C27.1396 19.2229 24.9138 19.3397 24.0283 20.2869C23.5833 20.7629 23.2926 21.3009 23.2803 21.9657C23.2775 22.1239 23.2683 22.2824 23.2683 22.4405C23.2674 24.8566 23.2677 27.2729 23.2677 29.6889C23.2677 29.7542 23.2677 29.8195 23.2677 29.8943C21.8253 29.8943 20.3992 29.8943 18.9639 29.8943C18.9639 25.4389 18.9639 20.9882 18.9639 16.5292C20.3967 16.5292 21.8228 16.5292 23.2655 16.5292C23.2655 17.1328 23.2655 17.7274 23.2655 18.3221C23.2769 18.327 23.2883 18.3322 23.2999 18.3371C23.3307 18.2954 23.362 18.2543 23.3924 18.2123C23.8237 17.6134 24.3191 17.0825 24.9774 16.7235C25.7126 16.3223 26.5068 16.1877 27.3333 16.2116C28.2283 16.2377 29.0775 16.4391 29.8428 16.9206C30.8238 17.538 31.4216 18.4413 31.7717 19.5249C32.0446 20.3693 32.134 21.2405 32.135 22.1227C32.1371 24.6613 32.1359 27.2002 32.1356 29.7389C32.1356 29.7885 32.131 29.8382 32.1279 29.8955Z" fill="currentColor"/><path d="M16.3342 29.9028C14.9026 29.9028 13.4848 29.9028 12.0535 29.9028C12.0535 25.445 12.0535 20.9896 12.0535 16.5254C13.4768 16.5254 14.8986 16.5254 16.3342 16.5254C16.3342 20.9792 16.3342 25.4343 16.3342 29.9028Z" fill="currentColor"/><path d="M14.3771 9.87305C15.7249 9.87121 16.6786 10.8297 16.6832 12.1906C16.6875 13.5371 15.7193 14.4901 14.3455 14.4907C13.0045 14.4916 12.0484 13.5329 12.0459 12.1854C12.0434 10.837 13.0134 9.87489 14.3771 9.87305Z" fill="currentColor"/></g></symbol></svg>